<svg xmlns="http://www.w3.org/2000/svg" version="1.1" xmlns:xlink="http://www.w3.org/1999/xlink" xmlns:svgjs="http://svgjs.dev/svgjs" viewBox="0 0 800 800"><defs><linearGradient x1="50%" y1="0%" x2="50%" y2="100%" id="ssscribble-grad"><stop stop-color="hsl(24, 91%, 55%)" stop-opacity="1" offset="0%"></stop><stop stop-color="hsl(243, 100%, 42%)" stop-opacity="1" offset="100%"></stop></linearGradient></defs><g fill="none" stroke-width="1.5" stroke="url(#ssscribble-grad)" stroke-linecap="round"><path d="M213.23 432.17C174.39 455.64 268.99 508.96 438.89 584.2 641.72 657.09 798.86 745.19 880.8 832.74 904.45 900.52 870.38 945.08 815.02 947.69 741.85 907.23 683.58 814.91 660.11 678.3 636.64 525.84 650.19 381.53 682.68 266.75 697.37 183.91 694.8 138.78 640.39 123.35 527.69 133.03 345.65 152.33 125.61 166.21 -61.49 186.04 -165.6 188.16 -126.76 164.69 43.92 141.22 276.52 94.38 482.18 33.87 621.04 -20.68 662.92 -76.61 632.52 -117.05 545.11 -132.39 449.66 -112.16 382.1 -46.54 312.08 51.01 285.11 185.79 308.58 338.24 332.03 474.87 403.71 576.72 514.4 634.4 622.62 649 754.72 629.35 872.91 592.33 934.09 535.54 917.14 484.07 795.51 451.85 607.07 417.29 383.99 408.69 213.28 432.16Q213.23 432.17 213.23 432.17" opacity="0.44"></path><path d="M179.47 638.15C136.11 656.92 180.07 694.38 283.78 743.45 431.09 788.82 574.36 838.3 684.17 880.55 774.44 907.2 821.08 913.13 833.32 889.05 833.11 839.23 818.55 755.83 799.77 644.25 780.99 522.48 759.77 403.67 727.44 301.49 682.66 215.12 606.71 151.82 491.84 110.44 357.41 84.7 194.23 71.01 33.15 61.61 -84.31 57.19 -135.88 47.93 -92.52 29.15 36.14 10.38 213.84 -16.13 390.16 -44.25 545.63 -67.39 649.2 -83.02 699.89 -81.89 709.41 -65.12 691.73 -21.73 671.05 50.86 639.77 139.29 627.37 250.48 646.15 372.25 664.92 483.83 713.1 574.84 776.92 638.42 830.15 676.27 877.14 690.25 892.23 688.21 866.15 670.58 782.49 650.41 640.78 637.58 478.23 621.05 308.14 619.37 179.47 638.15Q179.47 638.15 179.47 638.15" opacity="0.07"></path><path d="M145.23 772.12C116.69 800.29 255.63 846.59 415.49 869.51 588.45 856.32 668.37 770.5 640.2 610.3 612.03 427.39 481.11 262.86 271.23 156.75 74.46 79.3 -87.3 34.12 -58.76 5.96 157 -22.2 431.75 -28.03 613.85 12.5 729.79 81.69 771.8 223.39 799.97 406.3 828.13 566.5 837.13 675.16 758.1 725.26 612.92 739.25 361 743.95 145.23 772.12Q145.23 772.12 145.23 772.12" opacity="0.81"></path><path d="M111.28 793.39C120.65 830.95 338.26 778.75 300.71 576.29 263.15 334.01 -15.34 139.54 -24.71 101.98 286.84 64.43 616.49 198.01 654.05 440.29 691.6 642.75 422.84 755.84 111.28 793.39Q111.28 793.39 111.28 793.39" opacity="0.16"></path></g></svg>